<svg width="142" height="32" viewBox="0 0 142 32" fill="none" xmlns="http://www.w3.org/2000/svg">
<path d="M21.3661 18.4616C21.4646 17.6493 21.5384 16.837 21.5384 16.0001C21.5384 15.1632 21.4646 14.3508 21.3661 13.5385H25.5261C25.723 14.3262 25.8461 15.1508 25.8461 16.0001C25.8461 16.8493 25.723 17.6739 25.5261 18.4616M19.1876 25.3047C19.9261 23.9385 20.4923 22.4616 20.8861 20.9232H24.5169C23.3245 22.9764 21.4327 24.5318 19.1876 25.3047ZM18.88 18.4616H13.12C12.9969 17.6493 12.923 16.837 12.923 16.0001C12.923 15.1632 12.9969 14.3385 13.12 13.5385H18.88C18.9907 14.3385 19.0769 15.1632 19.0769 16.0001C19.0769 16.837 18.9907 17.6493 18.88 18.4616ZM16 25.797C14.9784 24.3201 14.1538 22.6832 13.6492 20.9232H18.3507C17.8461 22.6832 17.0215 24.3201 16 25.797ZM11.0769 11.077H7.48303C8.66316 9.01819 10.5535 7.46037 12.8 6.69546C12.0615 8.06161 11.5076 9.53854 11.0769 11.077ZM7.48303 20.9232H11.0769C11.5076 22.4616 12.0615 23.9385 12.8 25.3047C10.5583 24.5314 8.67053 22.9757 7.48303 20.9232ZM6.4738 18.4616C6.27688 17.6739 6.1538 16.8493 6.1538 16.0001C6.1538 15.1508 6.27688 14.3262 6.4738 13.5385H10.6338C10.5353 14.3508 10.4615 15.1632 10.4615 16.0001C10.4615 16.837 10.5353 17.6493 10.6338 18.4616M16 6.19084C17.0215 7.66777 17.8461 9.317 18.3507 11.077H13.6492C14.1538 9.317 14.9784 7.66777 16 6.19084ZM24.5169 11.077H20.8861C20.5009 9.55264 19.9305 8.08118 19.1876 6.69546C21.4523 7.47084 23.3353 9.03392 24.5169 11.077ZM16 3.69238C9.1938 3.69238 3.69226 9.23084 3.69226 16.0001C3.69226 19.2643 4.98896 22.3948 7.2971 24.7029C8.43997 25.8458 9.79676 26.7524 11.29 27.3709C12.7832 27.9894 14.3837 28.3078 16 28.3078C19.2642 28.3078 22.3947 27.0111 24.7028 24.7029C27.0109 22.3948 28.3076 19.2643 28.3076 16.0001C28.3076 14.3838 27.9893 12.7834 27.3708 11.2901C26.7523 9.79689 25.8457 8.4401 24.7028 7.29722C23.5599 6.15435 22.2031 5.24777 20.7099 4.62925C19.2167 4.01073 17.6162 3.69238 16 3.69238Z" fill="#444CE7"/>
<path d="M42.1477 23V11.3636H46.5114C47.4053 11.3636 48.1553 11.5303 48.7614 11.8636C49.3712 12.197 49.8314 12.6553 50.142 13.2386C50.4564 13.8182 50.6136 14.4773 50.6136 15.2159C50.6136 15.9621 50.4564 16.625 50.142 17.2045C49.8277 17.7841 49.3636 18.2405 48.75 18.5739C48.1364 18.9034 47.3807 19.0682 46.483 19.0682H43.5909V17.3352H46.1989C46.7216 17.3352 47.1496 17.2443 47.483 17.0625C47.8163 16.8807 48.0625 16.6307 48.2216 16.3125C48.3845 15.9943 48.4659 15.6288 48.4659 15.2159C48.4659 14.803 48.3845 14.4394 48.2216 14.125C48.0625 13.8106 47.8144 13.5663 47.4773 13.392C47.1439 13.214 46.714 13.125 46.1875 13.125H44.2557V23H42.1477ZM52.4446 23V11.3636H60.0128V13.1307H54.5526V16.2898H59.6207V18.0568H54.5526V21.233H60.0582V23H52.4446ZM62.1634 23V11.3636H66.527C67.4209 11.3636 68.1709 11.5189 68.777 11.8295C69.3868 12.1402 69.8471 12.5758 70.1577 13.1364C70.4721 13.6932 70.6293 14.3428 70.6293 15.0852C70.6293 15.8314 70.4702 16.4792 70.152 17.0284C69.8376 17.5739 69.3736 17.9962 68.7599 18.2955C68.1463 18.5909 67.3925 18.7386 66.4986 18.7386H63.3906V16.9886H66.2145C66.7372 16.9886 67.1652 16.9167 67.4986 16.7727C67.8319 16.625 68.0781 16.411 68.2372 16.1307C68.4001 15.8466 68.4815 15.4981 68.4815 15.0852C68.4815 14.6723 68.4001 14.3201 68.2372 14.0284C68.0743 13.733 67.8262 13.5095 67.4929 13.358C67.1596 13.2027 66.7296 13.125 66.2031 13.125H64.2713V23H62.1634ZM68.1747 17.7273L71.0554 23H68.7031L65.8736 17.7273H68.1747ZM82.1321 11.3636V23H80.2571L74.7741 15.0739H74.6776V23H72.5696V11.3636H74.456L79.9332 19.2955H80.0355V11.3636H82.1321Z" fill="#101828"/>
<path d="M91.4716 14.5625C91.4186 14.0663 91.1951 13.6799 90.8011 13.4034C90.411 13.1269 89.9034 12.9886 89.2784 12.9886C88.839 12.9886 88.4621 13.0549 88.1477 13.1875C87.8333 13.3201 87.5928 13.5 87.4261 13.7273C87.2595 13.9545 87.1742 14.214 87.1705 14.5057C87.1705 14.7481 87.2254 14.9583 87.3352 15.1364C87.4489 15.3144 87.6023 15.4659 87.7955 15.5909C87.9886 15.7121 88.2027 15.8144 88.4375 15.8977C88.6723 15.9811 88.9091 16.0511 89.1477 16.108L90.2386 16.3807C90.678 16.483 91.1004 16.6212 91.5057 16.7955C91.9148 16.9697 92.2803 17.1894 92.6023 17.4545C92.928 17.7197 93.1856 18.0398 93.375 18.4148C93.5644 18.7898 93.6591 19.2292 93.6591 19.733C93.6591 20.4148 93.4848 21.0152 93.1364 21.5341C92.7879 22.0492 92.2841 22.4527 91.625 22.7443C90.9697 23.0322 90.1761 23.1761 89.2443 23.1761C88.339 23.1761 87.553 23.036 86.8864 22.7557C86.2235 22.4754 85.7045 22.0663 85.3295 21.5284C84.9583 20.9905 84.7576 20.3352 84.7273 19.5625H86.8011C86.8314 19.9678 86.9564 20.3049 87.1761 20.5739C87.3958 20.8428 87.6818 21.0436 88.0341 21.1761C88.3902 21.3087 88.7879 21.375 89.2273 21.375C89.6856 21.375 90.0871 21.3068 90.4318 21.1705C90.7803 21.0303 91.053 20.8371 91.25 20.5909C91.447 20.3409 91.5473 20.0492 91.5511 19.7159C91.5473 19.4129 91.4583 19.1629 91.2841 18.9659C91.1098 18.7652 90.8655 18.5985 90.5511 18.4659C90.2405 18.3295 89.8769 18.2083 89.4602 18.1023L88.1364 17.7614C87.178 17.5152 86.4205 17.142 85.8636 16.642C85.3106 16.1383 85.0341 15.4697 85.0341 14.6364C85.0341 13.9508 85.2197 13.3504 85.5909 12.8352C85.9659 12.3201 86.4754 11.9205 87.1193 11.6364C87.7633 11.3485 88.4924 11.2045 89.3068 11.2045C90.1326 11.2045 90.8561 11.3485 91.4773 11.6364C92.1023 11.9205 92.5928 12.3163 92.9489 12.8239C93.3049 13.3277 93.4886 13.9072 93.5 14.5625H91.4716ZM99.8054 14.2727V15.8636H94.7884V14.2727H99.8054ZM96.027 12.1818H98.0838V20.375C98.0838 20.6515 98.1255 20.8636 98.2088 21.0114C98.2959 21.1553 98.4096 21.2538 98.5497 21.3068C98.6899 21.3598 98.8452 21.3864 99.0156 21.3864C99.1444 21.3864 99.2618 21.3769 99.3679 21.358C99.4777 21.339 99.5611 21.322 99.6179 21.3068L99.9645 22.9148C99.8546 22.9527 99.6974 22.9943 99.4929 23.0398C99.2921 23.0852 99.0459 23.1117 98.7543 23.1193C98.2391 23.1345 97.7751 23.0568 97.3622 22.8864C96.9493 22.7121 96.6217 22.4432 96.3793 22.0795C96.1406 21.7159 96.0232 21.2614 96.027 20.7159V12.1818ZM104.037 23.1761C103.484 23.1761 102.986 23.0777 102.543 22.8807C102.103 22.6799 101.755 22.3845 101.497 21.9943C101.243 21.6042 101.116 21.1231 101.116 20.5511C101.116 20.0587 101.207 19.6515 101.389 19.3295C101.571 19.0076 101.819 18.75 102.134 18.5568C102.448 18.3636 102.802 18.2178 103.196 18.1193C103.594 18.017 104.005 17.9432 104.429 17.8977C104.94 17.8447 105.355 17.7973 105.673 17.7557C105.991 17.7102 106.223 17.642 106.366 17.5511C106.514 17.4564 106.588 17.3106 106.588 17.1136V17.0795C106.588 16.6515 106.461 16.3201 106.207 16.0852C105.954 15.8504 105.588 15.733 105.111 15.733C104.607 15.733 104.207 15.8428 103.912 16.0625C103.62 16.2822 103.423 16.5417 103.321 16.8409L101.401 16.5682C101.552 16.0379 101.802 15.5947 102.151 15.2386C102.499 14.8788 102.925 14.6098 103.429 14.4318C103.933 14.25 104.49 14.1591 105.099 14.1591C105.52 14.1591 105.938 14.2083 106.355 14.3068C106.772 14.4053 107.152 14.5682 107.497 14.7955C107.842 15.0189 108.118 15.3239 108.327 15.7102C108.539 16.0966 108.645 16.5795 108.645 17.1591V23H106.668V21.8011H106.599C106.474 22.0436 106.298 22.2708 106.071 22.483C105.848 22.6913 105.565 22.8598 105.224 22.9886C104.887 23.1136 104.491 23.1761 104.037 23.1761ZM104.571 21.6648C104.984 21.6648 105.342 21.5833 105.645 21.4205C105.948 21.2538 106.181 21.0341 106.344 20.7614C106.51 20.4886 106.594 20.1913 106.594 19.8693V18.8409C106.529 18.8939 106.42 18.9432 106.264 18.9886C106.113 19.0341 105.942 19.0739 105.753 19.108C105.563 19.142 105.376 19.1723 105.19 19.1989C105.005 19.2254 104.844 19.2481 104.707 19.267C104.401 19.3087 104.126 19.3769 103.884 19.4716C103.641 19.5663 103.45 19.6989 103.31 19.8693C103.17 20.036 103.099 20.2519 103.099 20.517C103.099 20.8958 103.238 21.1818 103.514 21.375C103.791 21.5682 104.143 21.6648 104.571 21.6648ZM114.52 23.1705C113.649 23.1705 112.901 22.9792 112.276 22.5966C111.654 22.214 111.175 21.6856 110.838 21.0114C110.505 20.3333 110.338 19.553 110.338 18.6705C110.338 17.7841 110.509 17.0019 110.849 16.3239C111.19 15.642 111.671 15.1117 112.293 14.733C112.918 14.3504 113.656 14.1591 114.509 14.1591C115.217 14.1591 115.844 14.2898 116.389 14.5511C116.938 14.8087 117.376 15.1742 117.702 15.6477C118.027 16.1174 118.213 16.6667 118.259 17.2955H116.293C116.213 16.875 116.024 16.5246 115.724 16.2443C115.429 15.9602 115.033 15.8182 114.537 15.8182C114.116 15.8182 113.747 15.9318 113.429 16.1591C113.111 16.3826 112.863 16.7045 112.685 17.125C112.51 17.5455 112.423 18.0492 112.423 18.6364C112.423 19.2311 112.51 19.7424 112.685 20.1705C112.859 20.5947 113.103 20.9223 113.418 21.1534C113.736 21.3807 114.109 21.4943 114.537 21.4943C114.84 21.4943 115.111 21.4375 115.349 21.3239C115.592 21.2064 115.795 21.0379 115.957 20.8182C116.12 20.5985 116.232 20.3314 116.293 20.017H118.259C118.209 20.6345 118.027 21.1818 117.713 21.6591C117.399 22.1326 116.971 22.5038 116.429 22.7727C115.887 23.0379 115.251 23.1705 114.52 23.1705ZM121.822 20.2614L121.817 17.7784H122.146L125.283 14.2727H127.686L123.828 18.5682H123.402L121.822 20.2614ZM119.947 23V11.3636H122.004V23H119.947ZM125.425 23L122.584 19.0284L123.97 17.5795L127.885 23H125.425Z" fill="#3538CD"/>
</svg>
